# xmcd CD database file
#
# Track frame offsets:
#	150
#	24555
#	34715
#
# Disc length: 616 seconds
#
# Revision: 0
# Processed by: cddbd v1.5PL3 Copyright (c) Steve Scherf et al.
# Submitted via: CDex 1.51
#
DISCID=1a026603
DTITLE=真島昌利 - 夜空の星くず
DYEAR=1900
DGENRE=Rock
TTITLE0=夜空の星くず
TTITLE1=バラ色の人生
TTITLE2=うな重
EXTD=
EXTT0=
EXTT1=
EXTT2=
PLAYORDER=
